<?xml version="1.0" standalone="no"?>
<!DOCTYPE svg PUBLIC "-//W3C//DTD SVG 20010904//EN"
 "http://www.w3.org/TR/2001/REC-SVG-20010904/DTD/svg10.dtd">
<svg version="1.0" xmlns="http://www.w3.org/2000/svg"
 width="260.000000pt" height="260.000000pt" viewBox="0 0 260.000000 260.000000"
 preserveAspectRatio="xMidYMid meet">
<metadata>
Created by potrace 1.11, written by Peter Selinger 2001-2013
</metadata>
<g transform="translate(0.000000,260.000000) scale(0.100000,-0.100000)"
fill="#000000" stroke="none">
<path d="M0 1300 l0 -1300 1300 0 1300 0 0 1300 0 1300 -1300 0 -1300 0 0
-1300z m1024 491 c30 -10 76 -34 102 -51 54 -38 77 -33 82 19 3 24 8 31 24 31
20 0 21 -3 15 -82 -4 -46 -7 -125 -7 -175 0 -73 -3 -93 -14 -93 -9 0 -18 22
-26 68 -15 91 -40 142 -90 191 -69 67 -183 90 -265 52 -112 -51 -177 -192
-191 -417 -15 -238 44 -457 141 -520 62 -40 168 -22 181 31 3 13 4 83 3 156
-4 128 -5 131 -31 154 -15 13 -45 26 -67 30 -23 4 -41 12 -41 18 0 16 483 13
488 -2 2 -6 -1 -11 -7 -11 -6 0 -20 -9 -31 -20 -19 -19 -20 -33 -20 -205 0
-158 -2 -185 -15 -185 -8 0 -15 7 -15 15 0 8 -5 26 -12 40 -16 35 -42 32 -152
-14 -126 -54 -201 -67 -307 -53 -113 15 -182 39 -254 87 -68 47 -131 132 -159
215 -24 70 -33 263 -17 343 38 181 192 336 377 381 89 22 243 20 308 -3z
m1000 -18 c37 -18 75 -33 83 -33 8 0 19 14 24 30 6 17 17 30 25 30 11 0 14
-24 14 -122 0 -152 -9 -228 -25 -228 -7 0 -16 20 -20 47 -18 118 -96 239 -172
264 -48 16 -116 13 -152 -6 -45 -23 -61 -52 -61 -115 0 -81 25 -111 209 -244
206 -150 257 -209 269 -312 12 -106 -31 -198 -116 -252 -128 -82 -353 -93
-501 -26 -70 32 -87 31 -100 -6 -6 -17 -17 -30 -27 -30 -14 0 -16 7 -10 46 3
26 6 120 6 210 0 136 2 164 14 164 10 0 17 -16 21 -47 31 -230 110 -333 255
-333 115 0 170 44 170 137 0 97 -43 151 -216 273 -172 123 -231 194 -241 296
-9 83 12 140 72 201 74 73 140 94 295 90 107 -2 120 -4 184 -34z"/>
</g>
</svg>
