<svg xmlns="http://www.w3.org/2000/svg" width="24" height="24" viewBox="0 0 24 24">
  <path fill="#000000" d="M20.998 11.907a8.945 8.945 0 0 0-.636-3.232c-.023-.058-.044-.116-.069-.173a9.01 9.01 0 0 0-2.239-3.156A8.966 8.966 0 0 0 12 3a8.963 8.963 0 0 0-6.093 2.384c-.374.345-.718.72-1.03 1.123A8.95 8.95 0 0 0 3 12c0 4.963 4.038 9 9 9 3.491 0 6.522-1.999 8.014-4.912a8.914 8.914 0 0 0 .846-2.515A9 9 0 0 0 21 12l-.002-.093zm-2.617-3.223l.046-.052c.06.117.117.237.171.357l-.075-.003-.142.02v-.322zm-1.147-1.385l.002-.355c.124.132.244.268.36.41l-.144.212-.5-.004-.03-.104.312-.16zm-9.576-.882v-.013h.159l.014-.055h.26v.114l-.075.1h-.359v-.146zm.254.355s.159-.028.173-.028c.013 0 0 .16 0 .16l-.359.022-.068-.082.254-.072zm10.975 3.15h-.58l-.355-.263-.372.037v.227h-.118l-.127-.09-.646-.164V9.25l-.817.063-.254.136h-.324l-.16-.016-.393.22v.411l-.806.581.067.248h.163l-.043.237-.114.042-.007.618.696.793H15l.019-.049h.544l.157-.145h.31l.169.17.46.047-.06.613.51.902-.269.514.018.242.212.212v.582l.279.374v.484h.24a7.275 7.275 0 0 1-5.65 2.694c-4.018 0-7.286-3.268-7.286-7.285 0-1.012.208-1.976.582-2.852V8.86l.26-.316a7.08 7.08 0 0 1 .291-.5l.012.132-.302.368a7.23 7.23 0 0 0-.261.543v.415l.303.146v.576l.29.495.236.037.03-.17-.278-.43-.055-.418h.164l.068.43.403.588-.104.19.256.39.636.158v-.103l.254.037-.024.181.2.037.309.084.436.497.556.042.055.454-.381.266-.018.406-.055.248.551.69.043.236s.2.055.224.055c.024 0 .448.32.448.32v1.248l.151.042-.103.575.255.34-.047.57.336.59.43.377.435.008.042-.14-.319-.268.019-.133.057-.163.012-.167-.216-.006-.108-.137.178-.172.025-.13-.2-.057.012-.12.284-.044.433-.208.146-.266.454-.581-.103-.455.139-.242.418.013.28-.223.092-.877.311-.396.055-.254-.284-.092-.188-.307-.642-.007-.509-.194-.024-.363-.17-.297-.46-.006-.265-.418-.236-.115-.013.127-.43.026-.157-.22-.448-.09-.37.426-.58-.098-.043-.655-.424-.073.17-.321-.048-.184-.558.372-.35-.043-.125-.274.076-.282.193-.356.445-.226h.86l-.003.262.31.144-.025-.448.223-.224.449-.295.03-.208.449-.466.476-.264-.042-.035.322-.303.119.031.054.068.122-.136.03-.013-.134-.02-.136-.045v-.13l.072-.06h.16l.072.033.063.127.077-.012v-.01L11.38 8l.224-.035.031-.109.128.032v.119l-.119.08.018.13.405.125v.005l.094-.008.006-.175-.32-.146-.02-.084.267-.091.012-.255-.278-.17-.019-.429-.381.188h-.14l.037-.327-.519-.123-.215.163v.495l-.386.122-.155.323-.168.027v-.413l-.363-.05-.181-.118-.073-.268.65-.38.317-.096.032.213.177-.009.014-.107.185-.027.003-.037-.08-.033-.018-.114.228-.02.137-.142.008-.01h.001l.042-.043.478-.06.212.179-.555.295.706.167.092-.236h.308l.11-.206-.219-.054v-.26l-.684-.304-.472.055-.267.14.019.338-.279-.042-.043-.188.267-.242-.484-.024-.14.042-.06.163.182.031-.036.182-.309.018-.048.12-.448.013s-.012-.254-.03-.254l.35-.006.268-.26-.146-.074-.194.189-.321-.019-.194-.266h-.411l-.43.32h.394l.036.116-.103.095.436.012.067.158-.49-.019-.025-.12-.308-.067-.164-.091-.367.003a7.245 7.245 0 0 1 4.28-1.395c1.842 0 3.525.689 4.81 1.82l-.087.155-.336.132-.142.153.033.18.173.024.105.261.299-.12.05.349h-.091l-.246-.036-.272.045-.263.373-.377.059-.055.322.16.038-.047.207-.374-.075-.343.075-.073.191.06.401.2.095.339-.002.228-.021.07-.182.356-.463.235.048.231-.209.043.163.57.384-.07.093-.257-.013.099.14.158.034.184-.077-.004-.223.082-.04-.066-.07-.379-.212-.1-.281h.316l.1.1.272.234.012.283.281.3.105-.411.195-.107.036.336.19.21.38-.007c.074.189.14.381.198.577l-.04.037zM8.33 7.608l.19-.09.173.04-.06.232-.185.059-.118-.241zm1.012.545v.15h-.436l-.163-.046.041-.104.21-.087h.285v.087h.063zm.2.209v.145l-.109.07-.135.025v-.24h.245zM9.42 8.3v-.17l.15.136-.15.037zm.068.35v.141l-.104.105h-.232l.037-.159.109-.01.022-.054.168-.023zm-.577-.29h.241l-.309.431-.127-.068.028-.182.167-.181zm.986.24v.142h-.232l-.063-.092v-.13h.018l.277.081zm-.214-.193l.066-.07.111.07-.089.073-.088-.073zm9.322 1.883l.023-.027.029.124-.052-.097z"/>
</svg>
